<?xml version="1.0" encoding="UTF-8"?><svg id="Layer_1" xmlns="http://www.w3.org/2000/svg" viewBox="0 0 422.01 265.61"><defs><style>.cls-1{fill:#9359a4;}.cls-2{fill:#cb3c32;}.cls-3{fill:#399846;}.cls-4{fill:#4d64af;}.cls-5{stroke-width:2.67px;}.cls-5,.cls-6{fill:none;stroke:#fff;stroke-miterlimit:11.34;}.cls-6{stroke-width:2.7px;}</style></defs><circle class="cls-2" cx="22.37" cy="73.96" r="22.37"/><circle class="cls-2" cx="22.37" cy="130.39" r="22.37"/><circle class="cls-2" cx="22.37" cy="186.81" r="22.37"/><circle class="cls-3" cx="211" cy="130.39" r="22.37"/><circle class="cls-3" cx="211" cy="186.81" r="22.37"/><circle class="cls-2" cx="22.37" cy="243.24" r="22.37"/><circle class="cls-1" cx="399.64" cy="73.96" r="22.37"/><g><circle class="cls-3" cx="211" cy="22.37" r="22.37"/><circle class="cls-2" cx="180.42" cy="73.38" r="22.37"/><circle class="cls-1" cx="241.59" cy="73.38" r="22.37"/></g><circle class="cls-1" cx="399.64" cy="130.39" r="22.37"/><circle class="cls-1" cx="399.64" cy="186.81" r="22.37"/><circle class="cls-1" cx="399.64" cy="243.24" r="22.37"/><g><g><line class="cls-6" x1="50.67" y1="73.96" x2="116.2" y2="99.84"/><line class="cls-6" x1="50.67" y1="130.8" x2="116.2" y2="99.84"/><line class="cls-6" x1="50.67" y1="186.81" x2="116.2" y2="99.84"/><line class="cls-6" x1="50.67" y1="243.24" x2="116.2" y2="99.84"/><line class="cls-6" x1="116.2" y1="158.6" x2="50.67" y2="73.96"/><line class="cls-6" x1="50.67" y1="130.8" x2="116.2" y2="158.6"/><line class="cls-6" x1="50.67" y1="186.81" x2="116.2" y2="158.6"/><line class="cls-6" x1="50.67" y1="243.24" x2="116.2" y2="158.6"/><line class="cls-6" x1="50.67" y1="73.96" x2="116.2" y2="217.37"/><line class="cls-6" x1="50.67" y1="130.8" x2="116.2" y2="217.37"/><line class="cls-6" x1="50.67" y1="186.81" x2="116.2" y2="217.37"/><line class="cls-6" x1="50.67" y1="243.24" x2="116.2" y2="217.37"/></g><g><line class="cls-5" x1="116.2" y1="99.83" x2="180.42" y2="124.66"/><line class="cls-5" x1="116.2" y1="158.71" x2="180.42" y2="124.66"/><line class="cls-5" x1="116.2" y1="217.6" x2="180.42" y2="124.66"/><line class="cls-5" x1="116.2" y1="99.83" x2="180.07" y2="192.76"/><line class="cls-5" x1="116.2" y1="158.71" x2="180.07" y2="192.76"/><line class="cls-5" x1="116.2" y1="217.6" x2="180.07" y2="192.76"/></g><g><circle class="cls-4" cx="115.29" cy="102.17" r="22.37"/><circle class="cls-4" cx="115.29" cy="158.6" r="22.37"/><circle class="cls-4" cx="115.29" cy="215.03" r="22.37"/></g></g><g><g><line class="cls-6" x1="371.63" y1="73.96" x2="306.1" y2="99.84"/><line class="cls-6" x1="371.63" y1="130.8" x2="306.1" y2="99.84"/><line class="cls-6" x1="371.63" y1="186.81" x2="306.1" y2="99.84"/><line class="cls-6" x1="371.63" y1="243.24" x2="306.1" y2="99.84"/><line class="cls-6" x1="306.1" y1="158.6" x2="371.63" y2="73.96"/><line class="cls-6" x1="371.63" y1="130.8" x2="306.1" y2="158.6"/><line class="cls-6" x1="371.63" y1="186.81" x2="306.1" y2="158.6"/><line class="cls-6" x1="371.63" y1="243.24" x2="306.1" y2="158.6"/><line class="cls-6" x1="371.63" y1="73.96" x2="306.1" y2="217.37"/><line class="cls-6" x1="371.63" y1="130.8" x2="306.1" y2="217.37"/><line class="cls-6" x1="371.63" y1="186.81" x2="306.1" y2="217.37"/><line class="cls-6" x1="371.63" y1="243.24" x2="306.1" y2="217.37"/></g><g><line class="cls-5" x1="306.1" y1="99.83" x2="241.88" y2="124.66"/><line class="cls-5" x1="306.1" y1="158.71" x2="241.88" y2="124.66"/><line class="cls-5" x1="306.1" y1="217.6" x2="241.88" y2="124.66"/><line class="cls-5" x1="306.1" y1="99.83" x2="242.23" y2="192.76"/><line class="cls-5" x1="306.1" y1="158.71" x2="242.23" y2="192.76"/><line class="cls-5" x1="306.1" y1="217.6" x2="242.23" y2="192.76"/></g><g><circle class="cls-4" cx="307.02" cy="102.17" r="22.37"/><circle class="cls-4" cx="307.02" cy="158.6" r="22.37"/><circle class="cls-4" cx="307.02" cy="215.03" r="22.37"/></g></g></svg>